{
    "asset" : {
        "generator" : "Khronos glTF Blender I/O v3.3.32",
        "version" : "2.0"
    },
    "scene" : 0,
    "scenes" : [
        {
            "name" : "Scene",
            "nodes" : [
                4
            ]
        }
    ],
    "nodes" : [
        {
            "name" : "Door_handle 1",
            "rotation" : [
                -0.7060161232948303,
                -0.7060161232948303,
                0.03925885632634163,
                0.03925878182053566
            ],
            "translation" : [
                -0.13230657577514648,
                0.9563412666320801,
                -0.08893541246652603
            ]
        },
        {
            "name" : "door_handle2",
            "rotation" : [
                0.7060161828994751,
                0.7060160636901855,
                0.039258453994989395,
                0.039258524775505066
            ],
            "scale" : [
                1.0000001192092896,
                1.0000001192092896,
                0.9999999403953552
            ],
            "translation" : [
                -0.1323065608739853,
                0.9563412666320801,
                0.08943053334951401
            ]
        },
        {
            "children" : [
                0,
                1
            ],
            "name" : "Door",
            "rotation" : [
                -2.491006867444412e-08,
                -2.4910074003514637e-08,
                -0.7071067094802856,
                0.7071068286895752
            ],
            "translation" : [
                -0.45770466327667236,
                1.0730762481689453,
                0.9980399012565613
            ]
        },
        {
            "mesh" : 0,
            "name" : "Door_mesh",
            "skin" : 0
        },
        {
            "children" : [
                3,
                2
            ],
            "name" : "Door_object"
        }
    ],
    "animations" : [
        {
            "channels" : [
                {
                    "sampler" : 0,
                    "target" : {
                        "node" : 2,
                        "path" : "translation"
                    }
                },
                {
                    "sampler" : 1,
                    "target" : {
                        "node" : 2,
                        "path" : "rotation"
                    }
                },
                {
                    "sampler" : 2,
                    "target" : {
                        "node" : 2,
                        "path" : "scale"
                    }
                },
                {
                    "sampler" : 3,
                    "target" : {
                        "node" : 0,
                        "path" : "translation"
                    }
                },
                {
                    "sampler" : 4,
                    "target" : {
                        "node" : 0,
                        "path" : "rotation"
                    }
                },
                {
                    "sampler" : 5,
                    "target" : {
                        "node" : 0,
                        "path" : "scale"
                    }
                },
                {
                    "sampler" : 6,
                    "target" : {
                        "node" : 1,
                        "path" : "translation"
                    }
                },
                {
                    "sampler" : 7,
                    "target" : {
                        "node" : 1,
                        "path" : "rotation"
                    }
                },
                {
                    "sampler" : 8,
                    "target" : {
                        "node" : 1,
                        "path" : "scale"
                    }
                }
            ],
            "name" : "Closed_door",
            "samplers" : [
                {
                    "input" : 7,
                    "interpolation" : "LINEAR",
                    "output" : 8
                },
                {
                    "input" : 7,
                    "interpolation" : "LINEAR",
                    "output" : 9
                },
                {
                    "input" : 7,
                    "interpolation" : "LINEAR",
                    "output" : 10
                },
                {
                    "input" : 7,
                    "interpolation" : "LINEAR",
                    "output" : 11
                },
                {
                    "input" : 7,
                    "interpolation" : "LINEAR",
                    "output" : 12
                },
                {
                    "input" : 7,
                    "interpolation" : "LINEAR",
                    "output" : 13
                },
                {
                    "input" : 7,
                    "interpolation" : "LINEAR",
                    "output" : 14
                },
                {
                    "input" : 7,
                    "interpolation" : "LINEAR",
                    "output" : 15
                },
                {
                    "input" : 7,
                    "interpolation" : "LINEAR",
                    "output" : 16
                }
            ]
        },
        {
            "channels" : [
                {
                    "sampler" : 0,
                    "target" : {
                        "node" : 2,
                        "path" : "translation"
                    }
                },
                {
                    "sampler" : 1,
                    "target" : {
                        "node" : 2,
                        "path" : "rotation"
                    }
                },
                {
                    "sampler" : 2,
                    "target" : {
                        "node" : 2,
                        "path" : "scale"
                    }
                },
                {
                    "sampler" : 3,
                    "target" : {
                        "node" : 0,
                        "path" : "translation"
                    }
                },
                {
                    "sampler" : 4,
                    "target" : {
                        "node" : 0,
                        "path" : "rotation"
                    }
                },
                {
                    "sampler" : 5,
                    "target" : {
                        "node" : 0,
                        "path" : "scale"
                    }
                },
                {
                    "sampler" : 6,
                    "target" : {
                        "node" : 1,
                        "path" : "translation"
                    }
                },
                {
                    "sampler" : 7,
                    "target" : {
                        "node" : 1,
                        "path" : "rotation"
                    }
                },
                {
                    "sampler" : 8,
                    "target" : {
                        "node" : 1,
                        "path" : "scale"
                    }
                }
            ],
            "name" : "Opening_door",
            "samplers" : [
                {
                    "input" : 17,
                    "interpolation" : "LINEAR",
                    "output" : 18
                },
                {
                    "input" : 17,
                    "interpolation" : "LINEAR",
                    "output" : 19
                },
                {
                    "input" : 17,
                    "interpolation" : "LINEAR",
                    "output" : 20
                },
                {
                    "input" : 17,
                    "interpolation" : "LINEAR",
                    "output" : 21
                },
                {
                    "input" : 17,
                    "interpolation" : "LINEAR",
                    "output" : 22
                },
                {
                    "input" : 17,
                    "interpolation" : "LINEAR",
                    "output" : 23
                },
                {
                    "input" : 17,
                    "interpolation" : "LINEAR",
                    "output" : 24
                },
                {
                    "input" : 17,
                    "interpolation" : "LINEAR",
                    "output" : 25
                },
                {
                    "input" : 17,
                    "interpolation" : "LINEAR",
                    "output" : 26
                }
            ]
        }
    ],
    "meshes" : [
        {
            "name" : "Cube.002",
            "primitives" : [
                {
                    "attributes" : {
                        "POSITION" : 0,
                        "NORMAL" : 1,
                        "TEXCOORD_0" : 2,
                        "JOINTS_0" : 3,
                        "WEIGHTS_0" : 4
                    },
                    "indices" : 5
                }
            ]
        }
    ],
    "skins" : [
        {
            "inverseBindMatrices" : 6,
            "joints" : [
                2,
                0,
                1
            ],
            "name" : "Door_object"
        }
    ],
    "accessors" : [
        {
            "bufferView" : 0,
            "componentType" : 5126,
            "count" : 1054,
            "max" : [
                0.7051129937171936,
                2.4491891860961914,
                1.1226557493209839
            ],
            "min" : [
                -0.4607080817222595,
                0.005564272403717041,
                0.8732554912567139
            ],
            "type" : "VEC3"
        },
        {
            "bufferView" : 1,
            "componentType" : 5126,
            "count" : 1054,
            "type" : "VEC3"
        },
        {
            "bufferView" : 2,
            "componentType" : 5126,
            "count" : 1054,
            "type" : "VEC2"
        },
        {
            "bufferView" : 3,
            "componentType" : 5121,
            "count" : 1054,
            "type" : "VEC4"
        },
        {
            "bufferView" : 4,
            "componentType" : 5126,
            "count" : 1054,
            "type" : "VEC4"
        },
        {
            "bufferView" : 5,
            "componentType" : 5123,
            "count" : 1752,
            "type" : "SCALAR"
        },
        {
            "bufferView" : 6,
            "componentType" : 5126,
            "count" : 3,
            "type" : "MAT4"
        },
        {
            "bufferView" : 7,
            "componentType" : 5126,
            "count" : 211,
            "max" : [
                3.5
            ],
            "min" : [
                0
            ],
            "type" : "SCALAR"
        },
        {
            "bufferView" : 8,
            "componentType" : 5126,
            "count" : 211,
            "type" : "VEC3"
        },
        {
            "bufferView" : 9,
            "componentType" : 5126,
            "count" : 211,
            "type" : "VEC4"
        },
        {
            "bufferView" : 10,
            "componentType" : 5126,
            "count" : 211,
            "type" : "VEC3"
        },
        {
            "bufferView" : 11,
            "componentType" : 5126,
            "count" : 211,
            "type" : "VEC3"
        },
        {
            "bufferView" : 12,
            "componentType" : 5126,
            "count" : 211,
            "type" : "VEC4"
        },
        {
            "bufferView" : 13,
            "componentType" : 5126,
            "count" : 211,
            "type" : "VEC3"
        },
        {
            "bufferView" : 14,
            "componentType" : 5126,
            "count" : 211,
            "type" : "VEC3"
        },
        {
            "bufferView" : 15,
            "componentType" : 5126,
            "count" : 211,
            "type" : "VEC4"
        },
        {
            "bufferView" : 16,
            "componentType" : 5126,
            "count" : 211,
            "type" : "VEC3"
        },
        {
            "bufferView" : 17,
            "componentType" : 5126,
            "count" : 206,
            "max" : [
                3.4166666666666665
            ],
            "min" : [
                0
            ],
            "type" : "SCALAR"
        },
        {
            "bufferView" : 18,
            "componentType" : 5126,
            "count" : 206,
            "type" : "VEC3"
        },
        {
            "bufferView" : 19,
            "componentType" : 5126,
            "count" : 206,
            "type" : "VEC4"
        },
        {
            "bufferView" : 20,
            "componentType" : 5126,
            "count" : 206,
            "type" : "VEC3"
        },
        {
            "bufferView" : 21,
            "componentType" : 5126,
            "count" : 206,
            "type" : "VEC3"
        },
        {
            "bufferView" : 22,
            "componentType" : 5126,
            "count" : 206,
            "type" : "VEC4"
        },
        {
            "bufferView" : 23,
            "componentType" : 5126,
            "count" : 206,
            "type" : "VEC3"
        },
        {
            "bufferView" : 24,
            "componentType" : 5126,
            "count" : 206,
            "type" : "VEC3"
        },
        {
            "bufferView" : 25,
            "componentType" : 5126,
            "count" : 206,
            "type" : "VEC4"
        },
        {
            "bufferView" : 26,
            "componentType" : 5126,
            "count" : 206,
            "type" : "VEC3"
        }
    ],
    "bufferViews" : [
        {
            "buffer" : 0,
            "byteLength" : 12648,
            "byteOffset" : 0,
            "target" : 34962
        },
        {
            "buffer" : 0,
            "byteLength" : 12648,
            "byteOffset" : 12648,
            "target" : 34962
        },
        {
            "buffer" : 0,
            "byteLength" : 8432,
            "byteOffset" : 25296,
            "target" : 34962
        },
        {
            "buffer" : 0,
            "byteLength" : 4216,
            "byteOffset" : 33728,
            "target" : 34962
        },
        {
            "buffer" : 0,
            "byteLength" : 16864,
            "byteOffset" : 37944,
            "target" : 34962
        },
        {
            "buffer" : 0,
            "byteLength" : 3504,
            "byteOffset" : 54808,
            "target" : 34963
        },
        {
            "buffer" : 0,
            "byteLength" : 192,
            "byteOffset" : 58312
        },
        {
            "buffer" : 0,
            "byteLength" : 844,
            "byteOffset" : 58504
        },
        {
            "buffer" : 0,
            "byteLength" : 2532,
            "byteOffset" : 59348
        },
        {
            "buffer" : 0,
            "byteLength" : 3376,
            "byteOffset" : 61880
        },
        {
            "buffer" : 0,
            "byteLength" : 2532,
            "byteOffset" : 65256
        },
        {
            "buffer" : 0,
            "byteLength" : 2532,
            "byteOffset" : 67788
        },
        {
            "buffer" : 0,
            "byteLength" : 3376,
            "byteOffset" : 70320
        },
        {
            "buffer" : 0,
            "byteLength" : 2532,
            "byteOffset" : 73696
        },
        {
            "buffer" : 0,
            "byteLength" : 2532,
            "byteOffset" : 76228
        },
        {
            "buffer" : 0,
            "byteLength" : 3376,
            "byteOffset" : 78760
        },
        {
            "buffer" : 0,
            "byteLength" : 2532,
            "byteOffset" : 82136
        },
        {
            "buffer" : 0,
            "byteLength" : 824,
            "byteOffset" : 84668
        },
        {
            "buffer" : 0,
            "byteLength" : 2472,
            "byteOffset" : 85492
        },
        {
            "buffer" : 0,
            "byteLength" : 3296,
            "byteOffset" : 87964
        },
        {
            "buffer" : 0,
            "byteLength" : 2472,
            "byteOffset" : 91260
        },
        {
            "buffer" : 0,
            "byteLength" : 2472,
            "byteOffset" : 93732
        },
        {
            "buffer" : 0,
            "byteLength" : 3296,
            "byteOffset" : 96204
        },
        {
            "buffer" : 0,
            "byteLength" : 2472,
            "byteOffset" : 99500
        },
        {
            "buffer" : 0,
            "byteLength" : 2472,
            "byteOffset" : 101972
        },
        {
            "buffer" : 0,
            "byteLength" : 3296,
            "byteOffset" : 104444
        },
        {
            "buffer" : 0,
            "byteLength" : 2472,
            "byteOffset" : 107740
        }
    ],
    "buffers" : [
        {
            "byteLength" : 110212,
            "uri" : "data:application/octet-stream;base64,"
        }
    ]
}
